<?xml version="1.0" encoding="UTF-8" standalone="no"?>
<!-- Created with Inkscape (http://www.inkscape.org/) -->

<svg
   version="1.1"
   id="svg1"
   width="4797.8799"
   height="1440"
   viewBox="0 0 4797.8799 1440"
   sodipodi:docname="TBHF_Logo_Native.ai"
   xmlns:inkscape="http://www.inkscape.org/namespaces/inkscape"
   xmlns:sodipodi="http://sodipodi.sourceforge.net/DTD/sodipodi-0.dtd"
   xmlns="http://www.w3.org/2000/svg"
   xmlns:svg="http://www.w3.org/2000/svg">
  <defs
     id="defs1">
    <clipPath
       clipPathUnits="userSpaceOnUse"
       id="clipPath270">
      <path
         d="M 0,1080 H 3598.406 V 0 H 0 Z"
         transform="translate(-152.63175,-410.15591)"
         id="path270" />
    </clipPath>
    <clipPath
       clipPathUnits="userSpaceOnUse"
       id="clipPath272">
      <path
         d="M 0,1080 H 3598.406 V 0 H 0 Z"
         transform="translate(-675.08027,-524.29852)"
         id="path272" />
    </clipPath>
    <clipPath
       clipPathUnits="userSpaceOnUse"
       id="clipPath274">
      <path
         d="M 0,1080 H 3598.406 V 0 H 0 Z"
         transform="translate(-843.63677,-1049.3849)"
         id="path274" />
    </clipPath>
    <clipPath
       clipPathUnits="userSpaceOnUse"
       id="clipPath276">
      <path
         d="M 0,1080 H 3598.406 V 0 H 0 Z"
         transform="translate(-1704.039,-1035.2087)"
         id="path276" />
    </clipPath>
    <clipPath
       clipPathUnits="userSpaceOnUse"
       id="clipPath278">
      <path
         d="M 0,1080 H 3598.406 V 0 H 0 Z"
         transform="translate(-1781.3033,-1035.2087)"
         id="path278" />
    </clipPath>
    <clipPath
       clipPathUnits="userSpaceOnUse"
       id="clipPath280">
      <path
         d="M 0,1080 H 3598.406 V 0 H 0 Z"
         transform="translate(-2125.1678,-1035.2087)"
         id="path280" />
    </clipPath>
    <clipPath
       clipPathUnits="userSpaceOnUse"
       id="clipPath282">
      <path
         d="M 0,1080 H 3598.406 V 0 H 0 Z"
         transform="translate(-1580.5725,-593.25761)"
         id="path282" />
    </clipPath>
    <clipPath
       clipPathUnits="userSpaceOnUse"
       id="clipPath284">
      <path
         d="M 0,1080 H 3598.406 V 0 H 0 Z"
         transform="translate(-1787.703,-779.47212)"
         id="path284" />
    </clipPath>
    <clipPath
       clipPathUnits="userSpaceOnUse"
       id="clipPath286">
      <path
         d="M 0,1080 H 3598.406 V 0 H 0 Z"
         transform="translate(-2018.5591,-733.73802)"
         id="path286" />
    </clipPath>
    <clipPath
       clipPathUnits="userSpaceOnUse"
       id="clipPath288">
      <path
         d="M 0,1080 H 3598.406 V 0 H 0 Z"
         transform="translate(-2189.4766,-673.64362)"
         id="path288" />
    </clipPath>
    <clipPath
       clipPathUnits="userSpaceOnUse"
       id="clipPath290">
      <path
         d="M 0,1080 H 3598.406 V 0 H 0 Z"
         transform="translate(-2425.0156,-779.47212)"
         id="path290" />
    </clipPath>
    <clipPath
       clipPathUnits="userSpaceOnUse"
       id="clipPath292">
      <path
         d="M 0,1080 H 3598.406 V 0 H 0 Z"
         transform="translate(-1580.5725,-523.73551)"
         id="path292" />
    </clipPath>
    <clipPath
       clipPathUnits="userSpaceOnUse"
       id="clipPath294">
      <path
         d="M 0,1080 H 3598.406 V 0 H 0 Z"
         id="path294" />
    </clipPath>
    <clipPath
       clipPathUnits="userSpaceOnUse"
       id="clipPath296">
      <path
         d="M 0,1080 H 3598.406 V 0 H 0 Z"
         transform="translate(-1886.3513,-382.16251)"
         id="path296" />
    </clipPath>
    <clipPath
       clipPathUnits="userSpaceOnUse"
       id="clipPath298">
      <path
         d="M 0,1080 H 3598.406 V 0 H 0 Z"
         transform="translate(-2218.0411,-523.73551)"
         id="path298" />
    </clipPath>
    <clipPath
       clipPathUnits="userSpaceOnUse"
       id="clipPath300">
      <path
         d="M 0,1080 H 3598.406 V 0 H 0 Z"
         transform="translate(-2411.1233,-415.56561)"
         id="path300" />
    </clipPath>
    <clipPath
       clipPathUnits="userSpaceOnUse"
       id="clipPath302">
      <path
         d="M 0,1080 H 3598.406 V 0 H 0 Z"
         transform="translate(-2411.1233,-415.56561)"
         id="path302" />
    </clipPath>
    <clipPath
       clipPathUnits="userSpaceOnUse"
       id="clipPath304">
      <path
         d="M 0,1080 H 3598.406 V 0 H 0 Z"
         transform="translate(-2528.0348,-426.17971)"
         id="path304" />
    </clipPath>
    <clipPath
       clipPathUnits="userSpaceOnUse"
       id="clipPath306">
      <path
         d="M 0,1080 H 3598.406 V 0 H 0 Z"
         transform="translate(-2528.0348,-426.17971)"
         id="path306" />
    </clipPath>
    <clipPath
       clipPathUnits="userSpaceOnUse"
       id="clipPath308">
      <path
         d="M 0,1080 H 3598.406 V 0 H 0 Z"
         transform="translate(-2781.5236,-427.27231)"
         id="path308" />
    </clipPath>
    <clipPath
       clipPathUnits="userSpaceOnUse"
       id="clipPath310">
      <path
         d="M 0,1080 H 3598.406 V 0 H 0 Z"
         transform="translate(-1694.0498,-267.99893)"
         id="path310" />
    </clipPath>
    <clipPath
       clipPathUnits="userSpaceOnUse"
       id="clipPath312">
      <path
         d="M 0,1080 H 3598.406 V 0 H 0 Z"
         transform="translate(-1891.6583,-159.82898)"
         id="path312" />
    </clipPath>
    <clipPath
       clipPathUnits="userSpaceOnUse"
       id="clipPath314">
      <path
         d="M 0,1080 H 3598.406 V 0 H 0 Z"
         transform="translate(-1891.6583,-159.82898)"
         id="path314" />
    </clipPath>
    <clipPath
       clipPathUnits="userSpaceOnUse"
       id="clipPath316">
      <path
         d="M 0,1080 H 3598.406 V 0 H 0 Z"
         transform="translate(-2008.5691,-267.99893)"
         id="path316" />
    </clipPath>
    <clipPath
       clipPathUnits="userSpaceOnUse"
       id="clipPath318">
      <path
         d="M 0,1080 H 3598.406 V 0 H 0 Z"
         transform="translate(-2237.8643,-267.99893)"
         id="path318" />
    </clipPath>
    <clipPath
       clipPathUnits="userSpaceOnUse"
       id="clipPath320">
      <path
         d="M 0,1080 H 3598.406 V 0 H 0 Z"
         transform="translate(-2459.9798,-81.784427)"
         id="path320" />
    </clipPath>
    <clipPath
       clipPathUnits="userSpaceOnUse"
       id="clipPath322">
      <path
         d="M 0,1080 H 3598.406 V 0 H 0 Z"
         transform="translate(-2734.3846,-222.26468)"
         id="path322" />
    </clipPath>
    <clipPath
       clipPathUnits="userSpaceOnUse"
       id="clipPath324">
      <path
         d="M 0,1080 H 3598.406 V 0 H 0 Z"
         transform="translate(-3000.7928,-267.99893)"
         id="path324" />
    </clipPath>
    <clipPath
       clipPathUnits="userSpaceOnUse"
       id="clipPath326">
      <path
         d="M 0,1080 H 3598.406 V 0 H 0 Z"
         id="path326" />
    </clipPath>
    <clipPath
       clipPathUnits="userSpaceOnUse"
       id="clipPath328">
      <path
         d="M 0,1080 H 3598.406 V 0 H 0 Z"
         transform="translate(-3285.9683,-159.82898)"
         id="path328" />
    </clipPath>
    <clipPath
       clipPathUnits="userSpaceOnUse"
       id="clipPath330">
      <path
         d="M 0,1080 H 3598.406 V 0 H 0 Z"
         transform="translate(-3285.9683,-159.82898)"
         id="path330" />
    </clipPath>
    <clipPath
       clipPathUnits="userSpaceOnUse"
       id="clipPath332">
      <path
         d="M 0,1080 H 3598.406 V 0 H 0 Z"
         transform="translate(-3408.0301,-267.99893)"
         id="path332" />
    </clipPath>
    <clipPath
       clipPathUnits="userSpaceOnUse"
       id="clipPath334">
      <path
         d="M 0,1080 H 3598.406 V 0 H 0 Z"
         transform="translate(-2676.0391,-670.58332)"
         id="path334" />
    </clipPath>
  </defs>
  <sodipodi:namedview
     id="namedview1"
     pagecolor="#ffffff"
     bordercolor="#000000"
     borderopacity="0.25"
     inkscape:showpageshadow="2"
     inkscape:pageopacity="0.0"
     inkscape:pagecheckerboard="0"
     inkscape:deskcolor="#d1d1d1">
    <inkscape:page
       x="0"
       y="0"
       inkscape:label="14"
       id="page268"
       width="4797.8799"
       height="1440"
       margin="40.820133 75.400002 40.826668 63.669067"
       bleed="0" />
  </sodipodi:namedview>
  <g
     id="layer-MC0"
     inkscape:groupmode="layer"
     inkscape:label="Layer 1"
     transform="translate(-29053.641)">
    <path
       id="path269"
       d="m 0,0 c 35.798,2.674 91.832,2.124 151.59,-22.1 87.629,-35.523 111.789,-92.981 182.998,-137.249 47.132,-29.3 125.407,-59.37 254.74,-44.517 -8.199,-29.761 -25.224,-73.326 -63.381,-108.489 -104.119,-95.949 -288.691,-58.474 -396.645,14.066 -28.216,18.96 -118.088,79.348 -134.058,183.647 -4.564,29.804 -1.883,55.295 1.278,72.578"
       style="fill:#ffffff;fill-opacity:1;fill-rule:nonzero;stroke:none"
       transform="matrix(1.3333333,0,0,-1.3333333,29257.149,893.12547)"
       clip-path="url(#clipPath270)" />
    <path
       id="path271"
       d="m 0,0 h -249.033 c -42.357,0 -80.207,-5.363 -113.561,-16.067 -33.343,-10.715 -61.585,-25.195 -84.715,-43.453 -23.119,-18.257 -40.897,-39.687 -53.312,-64.266 -12.415,-24.591 -18.623,-50.516 -18.623,-77.777 0,-33.115 6.938,-61.836 20.814,-86.176 13.875,-24.351 31.768,-44.434 53.677,-60.249 21.909,-15.827 46.625,-27.638 74.125,-35.42 27.512,-7.794 54.898,-11.685 82.159,-11.685 H 0 Z m 108.085,-493.683 h -442.563 c -38.455,0 -75.335,7.542 -110.64,22.639 -35.294,15.085 -66.458,35.659 -93.479,61.71 -27.021,26.04 -48.565,56.347 -64.632,90.923 -16.066,34.563 -24.099,71.569 -24.099,111.006 0,27.751 3.651,54.521 10.954,80.333 7.303,25.8 19.114,49.9 35.42,72.299 16.317,22.389 37.861,42.358 64.631,59.885 26.782,17.527 59.645,31.882 98.591,43.088 -51.6,26.77 -91.162,61.094 -118.674,102.972 -27.5,41.867 -41.262,87.146 -41.262,135.836 0,32.613 6.824,63.285 20.448,92.018 13.637,28.721 33.115,53.917 58.424,75.586 25.321,21.658 55.755,38.82 91.288,51.487 35.545,12.654 75.472,18.987 119.769,18.987 h 395.824 z"
       style="fill:#ffffff;fill-opacity:1;fill-rule:nonzero;stroke:none"
       transform="matrix(1.3333333,0,0,-1.3333333,29953.747,740.93533)"
       clip-path="url(#clipPath272)" />
    <path
       id="path273"
       d="M 0,0 V -419.923 H 460.82 V 0 H 633.171 V -1018.77 H 460.82 v 455.708 H 0 V -1018.77 H -172.351 V 0 Z"
       style="fill:#ffffff;fill-opacity:1;fill-rule:nonzero;stroke:none"
       transform="matrix(1.3333333,0,0,-1.3333333,30178.489,40.820133)"
       clip-path="url(#clipPath274)" />
    <path
       id="path275"
       d="m 0,0 v -31.062 h -68.835 v -186.683 h -36.837 v 186.683 h -68.992 V 0 Z"
       style="fill:#ffffff;fill-opacity:1;fill-rule:nonzero;stroke:#ffffff;stroke-width:7;stroke-linecap:butt;stroke-linejoin:miter;stroke-miterlimit:10;stroke-dasharray:none;stroke-opacity:1"
       transform="matrix(1.3333333,0,0,-1.3333333,31325.692,59.721733)"
       clip-path="url(#clipPath276)" />
    <path
       id="path277"
       d="M 0,0 V -89.751 H 98.492 V 0 h 36.837 V -217.745 H 98.492 v 97.4 H 0 v -97.4 H -36.837 V 0 Z"
       style="fill:#ffffff;fill-opacity:1;fill-rule:nonzero;stroke:#ffffff;stroke-width:7;stroke-linecap:butt;stroke-linejoin:miter;stroke-miterlimit:10;stroke-dasharray:none;stroke-opacity:1"
       transform="matrix(1.3333333,0,0,-1.3333333,31428.711,59.721733)"
       clip-path="url(#clipPath278)" />
    <path
       id="path279"
       d="M 0,0 V -31.062 H -116.911 V -89.907 H -7.18 v -31.218 h -109.731 v -65.089 H 4.995 v -31.531 H -153.748 V 0 Z"
       style="fill:#ffffff;fill-opacity:1;fill-rule:nonzero;stroke:#ffffff;stroke-width:7;stroke-linecap:butt;stroke-linejoin:miter;stroke-miterlimit:10;stroke-dasharray:none;stroke-opacity:1"
       transform="matrix(1.3333333,0,0,-1.3333333,31887.197,59.721733)"
       clip-path="url(#clipPath280)" />
    <path
       id="path281"
       d="m 0,0 h 51.51 c 4.682,0 9.389,0.624 14.126,1.873 4.734,1.249 8.999,3.2 12.799,5.853 3.797,2.654 6.892,6.034 9.287,10.146 2.393,4.11 3.59,9.078 3.59,14.907 0,4.785 -1.092,9.365 -3.278,13.736 -2.185,4.37 -5.333,8.167 -9.443,11.394 -4.112,3.224 -9.131,5.8 -15.063,7.727 -5.931,1.924 -12.592,2.887 -19.979,2.887 H 0 Z m 0,99.429 h 46.203 c 5.097,0 9.806,0.805 14.125,2.419 4.317,1.612 8.039,3.798 11.161,6.556 3.122,2.756 5.541,5.983 7.258,9.678 1.717,3.692 2.576,7.57 2.576,11.628 0,3.746 -0.625,7.153 -1.874,10.224 -1.248,3.068 -3.148,5.748 -5.697,8.039 -2.551,2.287 -5.802,4.058 -9.755,5.307 -3.956,1.248 -8.585,1.873 -13.892,1.873 H 0 Z m -36.837,86.785 h 88.19 c 10.197,0 19.329,-1.458 27.394,-4.37 8.063,-2.914 14.88,-6.844 20.448,-11.785 5.565,-4.943 9.833,-10.692 12.799,-17.248 2.966,-6.555 4.449,-13.528 4.449,-20.916 0,-9.158 -2.056,-17.664 -6.166,-25.52 -4.112,-7.858 -10.329,-14.907 -18.653,-21.15 6.659,-2.81 12.331,-6.166 17.014,-10.068 4.683,-3.902 8.507,-8.17 11.473,-12.799 2.965,-4.632 5.151,-9.549 6.556,-14.751 1.404,-5.204 2.107,-10.511 2.107,-15.921 0,-8.741 -1.873,-16.962 -5.62,-24.662 -3.746,-7.702 -8.767,-14.387 -15.062,-20.057 -6.297,-5.673 -13.556,-10.173 -21.775,-13.502 -8.221,-3.332 -16.755,-4.995 -25.598,-4.995 h -97.556 z"
       style="fill:#ffffff;fill-opacity:1;fill-rule:nonzero;stroke:#ffffff;stroke-width:7;stroke-linecap:butt;stroke-linejoin:miter;stroke-miterlimit:10;stroke-dasharray:none;stroke-opacity:1"
       transform="matrix(1.3333333,0,0,-1.3333333,31161.07,648.98987)"
       clip-path="url(#clipPath282)" />
    <path
       id="path283"
       d="m 0,0 v -186.214 h 104.736 v -31.531 H -36.837 V 0 Z"
       style="fill:#ffffff;fill-opacity:1;fill-rule:nonzero;stroke:#ffffff;stroke-width:7;stroke-linecap:butt;stroke-linejoin:miter;stroke-miterlimit:10;stroke-dasharray:none;stroke-opacity:1"
       transform="matrix(1.3333333,0,0,-1.3333333,31437.244,400.70387)"
       clip-path="url(#clipPath284)" />
    <path
       id="path285"
       d="M 0,0 -27.784,-77.42 H 27.628 Z M 21.54,45.734 101.146,-172.01 H 62.592 l -23.414,63.684 h -78.356 c -3.747,-10.512 -7.624,-21.126 -11.629,-31.842 -4.007,-10.719 -7.883,-21.333 -11.629,-31.842 h -38.085 l 79.605,217.744 z"
       style="fill:#ffffff;fill-opacity:1;fill-rule:nonzero;stroke:#ffffff;stroke-width:7;stroke-linecap:butt;stroke-linejoin:miter;stroke-miterlimit:10;stroke-dasharray:none;stroke-opacity:1"
       transform="matrix(1.3333333,0,0,-1.3333333,31745.052,461.68267)"
       clip-path="url(#clipPath286)" />
    <path
       id="path287"
       d="m 0,0 c 0,-14.985 1.846,-27.94 5.541,-38.866 3.693,-10.926 8.558,-19.955 14.594,-27.082 6.034,-7.129 12.878,-12.436 20.526,-15.921 7.649,-3.487 15.375,-5.229 23.179,-5.229 8.012,0 15.297,1.639 21.853,4.917 6.556,3.278 12.304,7.622 17.248,13.033 4.941,5.41 9.026,11.575 12.253,18.497 3.224,6.919 5.565,14.021 7.024,21.306 h 37.461 c -2.395,-12.384 -6.219,-23.908 -11.472,-34.574 -5.256,-10.667 -11.917,-19.979 -19.98,-27.94 -8.065,-7.96 -17.482,-14.204 -28.252,-18.73 -10.77,-4.527 -22.816,-6.79 -36.135,-6.79 -15.401,0 -29.293,2.629 -41.675,7.882 -12.385,5.254 -22.946,12.902 -31.686,22.945 -8.741,10.041 -15.48,22.346 -20.214,36.916 -4.736,14.567 -7.102,31.164 -7.102,49.792 0,14.463 2.236,28.381 6.712,41.754 4.473,13.37 11.004,25.208 19.589,35.51 8.585,10.302 19.094,18.521 31.53,24.662 12.433,6.139 26.613,9.21 42.534,9.21 13.526,0 25.599,-1.927 36.213,-5.776 10.614,-3.851 19.926,-9.185 27.94,-15.999 8.012,-6.817 14.75,-14.906 20.214,-24.272 5.463,-9.365 9.806,-19.616 13.033,-30.749 H 122.686 C 117.169,50 109.574,61.577 99.897,69.226 90.219,76.874 78.096,80.698 63.528,80.698 c -9.365,0 -17.926,-2.134 -25.676,-6.4 C 30.098,70.03 23.413,64.231 17.794,56.895 12.175,49.558 7.804,40.998 4.683,31.218 1.561,21.435 0,11.029 0,0"
       style="fill:#ffffff;fill-opacity:1;fill-rule:nonzero;stroke:#ffffff;stroke-width:7;stroke-linecap:butt;stroke-linejoin:miter;stroke-miterlimit:10;stroke-dasharray:none;stroke-opacity:1"
       transform="matrix(1.3333333,0,0,-1.3333333,31972.942,541.80853)"
       clip-path="url(#clipPath288)" />
    <path
       id="path289"
       d="M 0,0 V -95.37 L 95.215,0 H 142.51 L 54.319,-87.878 144.851,-217.745 H 100.365 L 29.189,-113.477 0,-142.041 v -75.704 H -37.149 V 0 Z"
       style="fill:#ffffff;fill-opacity:1;fill-rule:nonzero;stroke:#ffffff;stroke-width:7;stroke-linecap:butt;stroke-linejoin:miter;stroke-miterlimit:10;stroke-dasharray:none;stroke-opacity:1"
       transform="matrix(1.3333333,0,0,-1.3333333,32286.994,400.70387)"
       clip-path="url(#clipPath290)" />
    <path
       id="path291"
       d="M 0,0 V -89.751 H 98.492 V 0 h 36.837 V -217.744 H 98.492 v 97.399 H 0 v -97.399 H -36.837 V 0 Z"
       style="fill:#ffffff;fill-opacity:1;fill-rule:nonzero;stroke:#ffffff;stroke-width:7;stroke-linecap:butt;stroke-linejoin:miter;stroke-miterlimit:10;stroke-dasharray:none;stroke-opacity:1"
       transform="matrix(1.3333333,0,0,-1.3333333,31161.07,741.686)"
       clip-path="url(#clipPath292)" />
    <path
       id="path293"
       d="m 1807.526,305.991 h -36.837 v 217.744 h 36.837 z"
       style="fill:#ffffff;fill-opacity:1;fill-rule:nonzero;stroke:#ffffff;stroke-width:7;stroke-linecap:butt;stroke-linejoin:miter;stroke-miterlimit:10;stroke-dasharray:none;stroke-opacity:1"
       transform="matrix(1.3333333,0,0,-1.3333333,29053.64,1440)"
       clip-path="url(#clipPath294)" />
    <path
       id="path295"
       d="m 0,0 c 0.519,-7.492 2.053,-14.336 4.605,-20.526 2.548,-6.192 5.904,-11.526 10.067,-15.999 4.161,-4.475 9.054,-7.936 14.673,-10.38 5.619,-2.446 11.809,-3.668 18.574,-3.668 5.932,0 11.629,0.624 17.092,1.873 5.463,1.249 10.275,3.278 14.438,6.088 4.161,2.809 7.493,6.477 9.99,11.004 2.498,4.527 3.746,10.068 3.746,16.623 0,5.932 -1.795,10.9 -5.385,14.907 -3.59,4.005 -8.299,7.517 -14.126,10.536 -5.829,3.017 -12.487,5.722 -19.979,8.117 -7.493,2.392 -15.117,4.89 -22.867,7.492 -7.754,2.6 -15.375,5.541 -22.867,8.819 -7.493,3.278 -14.153,7.282 -19.98,12.019 -5.829,4.734 -10.536,10.431 -14.126,17.092 -3.59,6.658 -5.385,14.672 -5.385,24.037 0,9.573 1.873,18.029 5.619,25.365 3.746,7.336 9.026,13.502 15.843,18.496 6.814,4.995 14.931,8.766 24.35,11.317 9.417,2.548 19.745,3.824 30.984,3.824 14.984,0 27.445,-2.185 37.383,-6.556 9.936,-4.37 17.924,-10.016 23.96,-16.935 6.034,-6.922 10.404,-14.595 13.111,-23.024 2.705,-8.428 4.317,-16.701 4.839,-24.818 H 86.942 c -0.625,6.971 -2.108,13.007 -4.449,18.107 -2.341,5.097 -5.385,9.311 -9.131,12.643 -3.746,3.329 -8.014,5.8 -12.799,7.414 -4.788,1.612 -9.888,2.419 -15.297,2.419 -4.893,0 -9.731,-0.495 -14.516,-1.482 -4.788,-0.991 -9.054,-2.603 -12.8,-4.839 -3.746,-2.239 -6.765,-5.151 -9.053,-8.741 -2.29,-3.59 -3.434,-7.988 -3.434,-13.19 0,-6.036 1.795,-11.109 5.385,-15.218 3.59,-4.112 8.297,-7.702 14.126,-10.77 5.827,-3.071 12.487,-5.83 19.98,-8.273 7.492,-2.446 15.14,-4.995 22.945,-7.649 7.804,-2.653 15.453,-5.594 22.945,-8.819 7.492,-3.226 14.15,-7.18 19.979,-11.862 5.827,-4.683 10.536,-10.302 14.126,-16.858 3.59,-6.556 5.385,-14.414 5.385,-23.57 0,-11.136 -2.056,-20.864 -6.165,-29.188 -4.112,-8.327 -9.834,-15.246 -17.17,-20.76 -7.336,-5.517 -16.026,-9.678 -26.067,-12.487 -10.043,-2.81 -21.047,-4.215 -33.013,-4.215 -10.719,0 -21.125,1.873 -31.217,5.62 -10.095,3.746 -19.121,9.155 -27.082,16.233 -7.961,7.075 -14.414,15.633 -19.355,25.677 -4.944,10.04 -7.57,21.408 -7.883,34.105 z"
       style="fill:#ffffff;fill-opacity:1;fill-rule:nonzero;stroke:#ffffff;stroke-width:7;stroke-linecap:butt;stroke-linejoin:miter;stroke-miterlimit:10;stroke-dasharray:none;stroke-opacity:1"
       transform="matrix(1.3333333,0,0,-1.3333333,31568.775,930.45)"
       clip-path="url(#clipPath296)" />
    <path
       id="path297"
       d="m 0,0 v -31.062 h -68.835 v -186.682 h -36.837 v 186.682 h -68.992 V 0 Z"
       style="fill:#ffffff;fill-opacity:1;fill-rule:nonzero;stroke:#ffffff;stroke-width:7;stroke-linecap:butt;stroke-linejoin:miter;stroke-miterlimit:10;stroke-dasharray:none;stroke-opacity:1"
       transform="matrix(1.3333333,0,0,-1.3333333,32011.028,741.686)"
       clip-path="url(#clipPath298)" />
    <path
       id="path299"
       d="m 0,0 c 0,13.214 -1.666,24.974 -4.995,35.276 -3.331,10.302 -7.882,18.965 -13.658,25.989 -5.775,7.024 -12.541,12.382 -20.291,16.077 -7.754,3.693 -16.104,5.541 -25.053,5.541 -9.053,0 -17.457,-1.848 -25.208,-5.541 -7.753,-3.695 -14.465,-9.053 -20.136,-16.077 -5.672,-7.024 -10.145,-15.687 -13.423,-25.989 -3.278,-10.302 -4.917,-22.062 -4.917,-35.276 0,-13.216 1.639,-25.028 4.917,-35.432 3.278,-10.407 7.751,-19.226 13.423,-26.457 5.671,-7.234 12.383,-12.749 20.136,-16.546 7.751,-3.8 16.155,-5.697 25.208,-5.697 8.949,0 17.299,1.897 25.053,5.697 7.75,3.797 14.516,9.312 20.291,16.546 5.776,7.231 10.327,16.05 13.658,26.457 C -1.666,-25.028 0,-13.216 0,0 m 36.837,-0.156 c 0,-16.858 -2.239,-32.337 -6.712,-46.437 -4.475,-14.101 -11.004,-26.223 -19.589,-36.368 -8.585,-10.146 -19.121,-18.029 -31.608,-23.648 -12.487,-5.619 -26.796,-8.429 -42.925,-8.429 -16.13,0 -30.413,2.837 -42.846,8.507 -12.436,5.67 -22.945,13.58 -31.53,23.726 -8.585,10.145 -15.09,22.267 -19.511,36.368 -4.425,14.1 -6.634,29.579 -6.634,46.437 0,16.858 2.209,32.257 6.634,46.202 4.421,13.944 10.926,25.911 19.511,35.901 8.585,9.99 19.094,17.74 31.53,23.257 12.433,5.515 26.716,8.273 42.846,8.273 16.129,0 30.438,-2.785 42.925,-8.351 C -8.585,99.714 1.951,91.937 10.536,81.947 19.121,71.957 25.65,59.989 30.125,46.046 34.598,32.101 36.837,16.702 36.837,-0.156"
       style="fill:#ffffff;fill-opacity:1;fill-rule:nonzero;stroke:none"
       transform="matrix(1.3333333,0,0,-1.3333333,32268.471,885.91253)"
       clip-path="url(#clipPath300)" />
    <path
       id="path301"
       d="m 0,0 c 0,13.214 -1.666,24.974 -4.995,35.276 -3.331,10.302 -7.882,18.965 -13.658,25.989 -5.775,7.024 -12.541,12.382 -20.291,16.077 -7.754,3.693 -16.104,5.541 -25.053,5.541 -9.053,0 -17.457,-1.848 -25.208,-5.541 -7.753,-3.695 -14.465,-9.053 -20.136,-16.077 -5.672,-7.024 -10.145,-15.687 -13.423,-25.989 -3.278,-10.302 -4.917,-22.062 -4.917,-35.276 0,-13.216 1.639,-25.028 4.917,-35.432 3.278,-10.407 7.751,-19.226 13.423,-26.457 5.671,-7.234 12.383,-12.749 20.136,-16.546 7.751,-3.8 16.155,-5.697 25.208,-5.697 8.949,0 17.299,1.897 25.053,5.697 7.75,3.797 14.516,9.312 20.291,16.546 5.776,7.231 10.327,16.05 13.658,26.457 C -1.666,-25.028 0,-13.216 0,0 Z m 36.837,-0.156 c 0,-16.858 -2.239,-32.337 -6.712,-46.437 -4.475,-14.101 -11.004,-26.223 -19.589,-36.368 -8.585,-10.146 -19.121,-18.029 -31.608,-23.648 -12.487,-5.619 -26.796,-8.429 -42.925,-8.429 -16.13,0 -30.413,2.837 -42.846,8.507 -12.436,5.67 -22.945,13.58 -31.53,23.726 -8.585,10.145 -15.09,22.267 -19.511,36.368 -4.425,14.1 -6.634,29.579 -6.634,46.437 0,16.858 2.209,32.257 6.634,46.202 4.421,13.944 10.926,25.911 19.511,35.901 8.585,9.99 19.094,17.74 31.53,23.257 12.433,5.515 26.716,8.273 42.846,8.273 16.129,0 30.438,-2.785 42.925,-8.351 C -8.585,99.714 1.951,91.937 10.536,81.947 19.121,71.957 25.65,59.989 30.125,46.046 34.598,32.101 36.837,16.702 36.837,-0.156 Z"
       style="fill:none;stroke:#ffffff;stroke-width:7;stroke-linecap:butt;stroke-linejoin:miter;stroke-miterlimit:10;stroke-dasharray:none;stroke-opacity:1"
       transform="matrix(1.3333333,0,0,-1.3333333,32268.471,885.91253)"
       clip-path="url(#clipPath302)" />
    <path
       id="path303"
       d="m 0,0 h 55.568 c 4.473,0 8.714,0.805 12.721,2.419 4.004,1.612 7.544,3.849 10.614,6.712 3.068,2.861 5.487,6.322 7.258,10.38 1.768,4.058 2.654,8.531 2.654,13.424 0,4.785 -0.835,9.233 -2.498,13.345 -1.666,4.11 -3.98,7.649 -6.946,10.615 -2.965,2.965 -6.477,5.307 -10.536,7.024 -4.058,1.717 -8.482,2.575 -13.267,2.575 H 0 Z m 125.808,33.715 c 0,-9.575 -2.473,-18.55 -7.414,-26.925 -4.944,-8.378 -12.463,-15.636 -22.555,-21.775 4.785,-1.665 8.897,-4.058 12.331,-7.18 3.434,-3.121 6.243,-6.633 8.429,-10.536 2.185,-3.902 3.797,-8.065 4.838,-12.487 1.039,-4.424 1.561,-8.819 1.561,-13.189 v -31.53 c 0,-3.956 0.961,-8.585 2.888,-13.892 1.924,-5.307 4.551,-10.771 7.882,-16.39 H 93.497 c -1.56,2.498 -2.836,5.098 -3.824,7.805 -0.99,2.704 -1.717,5.358 -2.185,7.96 -0.468,2.6 -0.78,5.046 -0.936,7.336 -0.157,2.288 -0.235,4.317 -0.235,6.088 v 33.091 c 0,3.224 -0.546,6.451 -1.639,9.677 -1.092,3.225 -2.836,6.112 -5.229,8.663 -2.395,2.549 -5.568,4.629 -9.521,6.244 -3.956,1.612 -8.741,2.419 -14.36,2.419 H 0 v -89.283 H -36.837 V 97.556 h 92.405 c 11.238,0 21.228,-1.873 29.969,-5.619 8.741,-3.747 16.101,-8.639 22.087,-14.673 5.982,-6.036 10.509,-12.853 13.579,-20.448 3.068,-7.597 4.605,-15.296 4.605,-23.101"
       style="fill:#ffffff;fill-opacity:1;fill-rule:nonzero;stroke:none"
       transform="matrix(1.3333333,0,0,-1.3333333,32424.353,871.7604)"
       clip-path="url(#clipPath304)" />
    <path
       id="path305"
       d="m 0,0 h 55.568 c 4.473,0 8.714,0.805 12.721,2.419 4.004,1.612 7.544,3.849 10.614,6.712 3.068,2.861 5.487,6.322 7.258,10.38 1.768,4.058 2.654,8.531 2.654,13.424 0,4.785 -0.835,9.233 -2.498,13.345 -1.666,4.11 -3.98,7.649 -6.946,10.615 -2.965,2.965 -6.477,5.307 -10.536,7.024 -4.058,1.717 -8.482,2.575 -13.267,2.575 H 0 Z m 125.808,33.715 c 0,-9.575 -2.473,-18.55 -7.414,-26.925 -4.944,-8.378 -12.463,-15.636 -22.555,-21.775 4.785,-1.665 8.897,-4.058 12.331,-7.18 3.434,-3.121 6.243,-6.633 8.429,-10.536 2.185,-3.902 3.797,-8.065 4.838,-12.487 1.039,-4.424 1.561,-8.819 1.561,-13.189 v -31.53 c 0,-3.956 0.961,-8.585 2.888,-13.892 1.924,-5.307 4.551,-10.771 7.882,-16.39 H 93.497 c -1.56,2.498 -2.836,5.098 -3.824,7.805 -0.99,2.704 -1.717,5.358 -2.185,7.96 -0.468,2.6 -0.78,5.046 -0.936,7.336 -0.157,2.288 -0.235,4.317 -0.235,6.088 v 33.091 c 0,3.224 -0.546,6.451 -1.639,9.677 -1.092,3.225 -2.836,6.112 -5.229,8.663 -2.395,2.549 -5.568,4.629 -9.521,6.244 -3.956,1.612 -8.741,2.419 -14.36,2.419 H 0 v -89.283 H -36.837 V 97.556 h 92.405 c 11.238,0 21.228,-1.873 29.969,-5.619 8.741,-3.747 16.101,-8.639 22.087,-14.673 5.982,-6.036 10.509,-12.853 13.579,-20.448 3.068,-7.597 4.605,-15.296 4.605,-23.101 z"
       style="fill:none;stroke:#ffffff;stroke-width:7;stroke-linecap:butt;stroke-linejoin:miter;stroke-miterlimit:10;stroke-dasharray:none;stroke-opacity:1"
       transform="matrix(1.3333333,0,0,-1.3333333,32424.353,871.7604)"
       clip-path="url(#clipPath306)" />
    <path
       id="path307"
       d="M 0,0 54.631,96.463 H 96.619 L 17.794,-35.12 v -86.161 H -19.199 V -35.12 L -97.868,96.463 h 41.832 z"
       style="fill:#ffffff;fill-opacity:1;fill-rule:nonzero;stroke:#ffffff;stroke-width:7;stroke-linecap:butt;stroke-linejoin:miter;stroke-miterlimit:10;stroke-dasharray:none;stroke-opacity:1"
       transform="matrix(1.3333333,0,0,-1.3333333,32762.338,870.3036)"
       clip-path="url(#clipPath308)" />
    <path
       id="path309"
       d="m 0,0 v -31.062 h -113.477 v -58.845 h 98.492 v -31.218 h -98.492 v -96.62 h -36.837 V 0 Z"
       style="fill:#ffffff;fill-opacity:1;fill-rule:nonzero;stroke:#ffffff;stroke-width:7;stroke-linecap:butt;stroke-linejoin:miter;stroke-miterlimit:10;stroke-dasharray:none;stroke-opacity:1"
       transform="matrix(1.3333333,0,0,-1.3333333,31312.373,1082.6681)"
       clip-path="url(#clipPath310)" />
    <path
       id="path311"
       d="m 0,0 c 0,13.214 -1.666,24.974 -4.995,35.276 -3.331,10.302 -7.882,18.965 -13.658,25.989 -5.775,7.024 -12.54,12.382 -20.291,16.077 -7.754,3.693 -16.104,5.541 -25.053,5.541 -9.053,0 -17.457,-1.848 -25.208,-5.541 -7.753,-3.695 -14.465,-9.053 -20.136,-16.077 -5.672,-7.024 -10.145,-15.687 -13.423,-25.989 -3.278,-10.302 -4.917,-22.062 -4.917,-35.276 0,-13.216 1.639,-25.028 4.917,-35.432 3.278,-10.407 7.751,-19.226 13.423,-26.457 5.671,-7.234 12.383,-12.748 20.136,-16.546 7.751,-3.8 16.155,-5.697 25.208,-5.697 8.949,0 17.299,1.897 25.053,5.697 7.751,3.798 14.516,9.312 20.291,16.546 5.776,7.231 10.327,16.05 13.658,26.457 C -1.666,-25.028 0,-13.216 0,0 m 36.837,-0.156 c 0,-16.858 -2.239,-32.337 -6.712,-46.437 -4.475,-14.101 -11.004,-26.223 -19.589,-36.368 -8.585,-10.146 -19.121,-18.029 -31.608,-23.648 -12.487,-5.619 -26.796,-8.429 -42.925,-8.429 -16.13,0 -30.413,2.837 -42.846,8.507 -12.436,5.67 -22.945,13.58 -31.53,23.726 -8.585,10.145 -15.09,22.267 -19.511,36.368 -4.424,14.1 -6.634,29.579 -6.634,46.437 0,16.858 2.21,32.257 6.634,46.202 4.421,13.944 10.926,25.911 19.511,35.901 8.585,9.99 19.094,17.74 31.53,23.257 12.433,5.515 26.716,8.273 42.846,8.273 16.129,0 30.438,-2.785 42.925,-8.351 C -8.585,99.714 1.951,91.937 10.536,81.947 19.121,71.957 25.65,59.989 30.125,46.046 34.598,32.101 36.837,16.702 36.837,-0.156"
       style="fill:#ffffff;fill-opacity:1;fill-rule:nonzero;stroke:none"
       transform="matrix(1.3333333,0,0,-1.3333333,31575.851,1226.8947)"
       clip-path="url(#clipPath312)" />
    <path
       id="path313"
       d="m 0,0 c 0,13.214 -1.666,24.974 -4.995,35.276 -3.331,10.302 -7.882,18.965 -13.658,25.989 -5.775,7.024 -12.54,12.382 -20.291,16.077 -7.754,3.693 -16.104,5.541 -25.053,5.541 -9.053,0 -17.457,-1.848 -25.208,-5.541 -7.753,-3.695 -14.465,-9.053 -20.136,-16.077 -5.672,-7.024 -10.145,-15.687 -13.423,-25.989 -3.278,-10.302 -4.917,-22.062 -4.917,-35.276 0,-13.216 1.639,-25.028 4.917,-35.432 3.278,-10.407 7.751,-19.226 13.423,-26.457 5.671,-7.234 12.383,-12.748 20.136,-16.546 7.751,-3.8 16.155,-5.697 25.208,-5.697 8.949,0 17.299,1.897 25.053,5.697 7.751,3.798 14.516,9.312 20.291,16.546 5.776,7.231 10.327,16.05 13.658,26.457 C -1.666,-25.028 0,-13.216 0,0 Z m 36.837,-0.156 c 0,-16.858 -2.239,-32.337 -6.712,-46.437 -4.475,-14.101 -11.004,-26.223 -19.589,-36.368 -8.585,-10.146 -19.121,-18.029 -31.608,-23.648 -12.487,-5.619 -26.796,-8.429 -42.925,-8.429 -16.13,0 -30.413,2.837 -42.846,8.507 -12.436,5.67 -22.945,13.58 -31.53,23.726 -8.585,10.145 -15.09,22.267 -19.511,36.368 -4.424,14.1 -6.634,29.579 -6.634,46.437 0,16.858 2.21,32.257 6.634,46.202 4.421,13.944 10.926,25.911 19.511,35.901 8.585,9.99 19.094,17.74 31.53,23.257 12.433,5.515 26.716,8.273 42.846,8.273 16.129,0 30.438,-2.785 42.925,-8.351 C -8.585,99.714 1.951,91.937 10.536,81.947 19.121,71.957 25.65,59.989 30.125,46.046 34.598,32.101 36.837,16.702 36.837,-0.156 Z"
       style="fill:none;stroke:#ffffff;stroke-width:7;stroke-linecap:butt;stroke-linejoin:miter;stroke-miterlimit:10;stroke-dasharray:none;stroke-opacity:1"
       transform="matrix(1.3333333,0,0,-1.3333333,31575.851,1226.8947)"
       clip-path="url(#clipPath314)" />
    <path
       id="path315"
       d="m 0,0 v -144.226 c 0,-7.598 1.249,-14.388 3.746,-20.37 2.498,-5.985 5.827,-11.031 9.99,-15.141 4.16,-4.112 8.975,-7.234 14.438,-9.365 5.463,-2.134 11.16,-3.2 17.092,-3.2 6.346,0 12.511,0.988 18.496,2.966 5.983,1.975 11.317,4.941 15.999,8.897 4.683,3.953 8.429,8.897 11.239,14.828 2.81,5.932 4.214,12.851 4.214,20.76 V 0 h 36.838 v -143.29 c 0,-13.009 -2.42,-24.482 -7.259,-34.418 -4.838,-9.938 -11.265,-18.289 -19.277,-25.052 -8.014,-6.765 -17.223,-11.863 -27.628,-15.297 -10.406,-3.434 -21.176,-5.151 -32.31,-5.151 -10.614,0 -20.892,1.693 -30.828,5.073 -9.938,3.381 -18.73,8.429 -26.379,15.141 -7.648,6.712 -13.762,15.114 -18.34,25.208 -4.58,10.092 -6.868,21.799 -6.868,35.12 V 0 Z"
       style="fill:#ffffff;fill-opacity:1;fill-rule:nonzero;stroke:#ffffff;stroke-width:7;stroke-linecap:butt;stroke-linejoin:miter;stroke-miterlimit:10;stroke-dasharray:none;stroke-opacity:1"
       transform="matrix(1.3333333,0,0,-1.3333333,31731.732,1082.6681)"
       clip-path="url(#clipPath316)" />
    <path
       id="path317"
       d="M 0,0 93.497,-165.611 V 0 h 36.837 V -217.745 H 88.815 L -5.151,-50.573 V -217.745 H -41.988 V 0 Z"
       style="fill:#ffffff;fill-opacity:1;fill-rule:nonzero;stroke:#ffffff;stroke-width:7;stroke-linecap:butt;stroke-linejoin:miter;stroke-miterlimit:10;stroke-dasharray:none;stroke-opacity:1"
       transform="matrix(1.3333333,0,0,-1.3333333,32037.459,1082.6681)"
       clip-path="url(#clipPath318)" />
    <path
       id="path319"
       d="m 0,0 h 39.022 c 9.885,0 19.043,1.69 27.472,5.073 8.429,3.38 15.687,8.351 21.774,14.906 6.088,6.556 10.849,14.646 14.283,24.272 3.434,9.624 5.15,20.682 5.15,33.169 0,13.424 -1.743,25.026 -5.229,34.808 -3.487,9.78 -8.272,17.846 -14.36,24.194 -6.087,6.346 -13.345,11.055 -21.774,14.126 -8.429,3.068 -17.536,4.605 -27.316,4.605 H 0 Z m -36.837,186.214 h 84.6 c 14.985,0 28.433,-2.836 40.349,-8.506 11.914,-5.673 22.06,-13.424 30.438,-23.258 8.375,-9.833 14.801,-21.333 19.277,-34.495 4.473,-13.166 6.712,-27.238 6.712,-42.223 0,-15.608 -2.342,-30.074 -7.024,-43.392 C 132.832,21.018 126.222,9.468 117.691,-0.312 109.157,-10.095 98.96,-17.743 87.098,-23.257 75.235,-28.774 62.124,-31.53 47.763,-31.53 h -84.6 z"
       style="fill:#ffffff;fill-opacity:1;fill-rule:nonzero;stroke:#ffffff;stroke-width:7;stroke-linecap:butt;stroke-linejoin:miter;stroke-miterlimit:10;stroke-dasharray:none;stroke-opacity:1"
       transform="matrix(1.3333333,0,0,-1.3333333,32333.613,1330.9541)"
       clip-path="url(#clipPath320)" />
    <path
       id="path321"
       d="M 0,0 -27.784,-77.42 H 27.628 Z M 21.54,45.734 101.146,-172.01 H 62.592 l -23.414,63.684 h -78.356 c -3.747,-10.512 -7.624,-21.126 -11.629,-31.842 -4.007,-10.719 -7.882,-21.333 -11.629,-31.842 h -38.085 l 79.605,217.744 z"
       style="fill:#ffffff;fill-opacity:1;fill-rule:nonzero;stroke:#ffffff;stroke-width:7;stroke-linecap:butt;stroke-linejoin:miter;stroke-miterlimit:10;stroke-dasharray:none;stroke-opacity:1"
       transform="matrix(1.3333333,0,0,-1.3333333,32699.486,1143.6471)"
       clip-path="url(#clipPath322)" />
    <path
       id="path323"
       d="m 0,0 v -31.062 h -68.835 v -186.683 h -36.838 v 186.683 h -68.991 V 0 Z"
       style="fill:#ffffff;fill-opacity:1;fill-rule:nonzero;stroke:#ffffff;stroke-width:7;stroke-linecap:butt;stroke-linejoin:miter;stroke-miterlimit:10;stroke-dasharray:none;stroke-opacity:1"
       transform="matrix(1.3333333,0,0,-1.3333333,33054.697,1082.6681)"
       clip-path="url(#clipPath324)" />
    <path
       id="path325"
       d="m 3078.057,50.254 h -36.837 v 217.745 h 36.837 z"
       style="fill:#ffffff;fill-opacity:1;fill-rule:nonzero;stroke:#ffffff;stroke-width:7;stroke-linecap:butt;stroke-linejoin:miter;stroke-miterlimit:10;stroke-dasharray:none;stroke-opacity:1"
       transform="matrix(1.3333333,0,0,-1.3333333,29053.64,1440)"
       clip-path="url(#clipPath326)" />
    <path
       id="path327"
       d="m 0,0 c 0,13.214 -1.666,24.974 -4.995,35.276 -3.331,10.302 -7.882,18.965 -13.658,25.989 -5.775,7.024 -12.541,12.382 -20.291,16.077 -7.754,3.693 -16.104,5.541 -25.053,5.541 -9.053,0 -17.457,-1.848 -25.208,-5.541 -7.753,-3.695 -14.465,-9.053 -20.136,-16.077 -5.672,-7.024 -10.145,-15.687 -13.423,-25.989 -3.278,-10.302 -4.917,-22.062 -4.917,-35.276 0,-13.216 1.639,-25.028 4.917,-35.432 3.278,-10.407 7.751,-19.226 13.423,-26.457 5.671,-7.234 12.383,-12.748 20.136,-16.546 7.751,-3.8 16.155,-5.697 25.208,-5.697 8.949,0 17.299,1.897 25.053,5.697 7.75,3.798 14.516,9.312 20.291,16.546 5.776,7.231 10.327,16.05 13.658,26.457 C -1.666,-25.028 0,-13.216 0,0 m 36.837,-0.156 c 0,-16.858 -2.239,-32.337 -6.712,-46.437 -4.475,-14.101 -11.004,-26.223 -19.589,-36.368 -8.585,-10.146 -19.121,-18.029 -31.608,-23.648 -12.487,-5.619 -26.796,-8.429 -42.925,-8.429 -16.13,0 -30.413,2.837 -42.846,8.507 -12.436,5.67 -22.945,13.58 -31.53,23.726 -8.585,10.145 -15.09,22.267 -19.511,36.368 -4.425,14.1 -6.634,29.579 -6.634,46.437 0,16.858 2.209,32.257 6.634,46.202 4.421,13.944 10.926,25.911 19.511,35.901 8.585,9.99 19.094,17.74 31.53,23.257 12.433,5.515 26.716,8.273 42.846,8.273 16.129,0 30.438,-2.785 42.925,-8.351 C -8.585,99.714 1.951,91.937 10.536,81.947 19.121,71.957 25.65,59.989 30.125,46.046 34.598,32.101 36.837,16.702 36.837,-0.156"
       style="fill:#ffffff;fill-opacity:1;fill-rule:nonzero;stroke:none"
       transform="matrix(1.3333333,0,0,-1.3333333,33434.931,1226.8947)"
       clip-path="url(#clipPath328)" />
    <path
       id="path329"
       d="m 0,0 c 0,13.214 -1.666,24.974 -4.995,35.276 -3.331,10.302 -7.882,18.965 -13.658,25.989 -5.775,7.024 -12.541,12.382 -20.291,16.077 -7.754,3.693 -16.104,5.541 -25.053,5.541 -9.053,0 -17.457,-1.848 -25.208,-5.541 -7.753,-3.695 -14.465,-9.053 -20.136,-16.077 -5.672,-7.024 -10.145,-15.687 -13.423,-25.989 -3.278,-10.302 -4.917,-22.062 -4.917,-35.276 0,-13.216 1.639,-25.028 4.917,-35.432 3.278,-10.407 7.751,-19.226 13.423,-26.457 5.671,-7.234 12.383,-12.748 20.136,-16.546 7.751,-3.8 16.155,-5.697 25.208,-5.697 8.949,0 17.299,1.897 25.053,5.697 7.75,3.798 14.516,9.312 20.291,16.546 5.776,7.231 10.327,16.05 13.658,26.457 C -1.666,-25.028 0,-13.216 0,0 Z m 36.837,-0.156 c 0,-16.858 -2.239,-32.337 -6.712,-46.437 -4.475,-14.101 -11.004,-26.223 -19.589,-36.368 -8.585,-10.146 -19.121,-18.029 -31.608,-23.648 -12.487,-5.619 -26.796,-8.429 -42.925,-8.429 -16.13,0 -30.413,2.837 -42.846,8.507 -12.436,5.67 -22.945,13.58 -31.53,23.726 -8.585,10.145 -15.09,22.267 -19.511,36.368 -4.425,14.1 -6.634,29.579 -6.634,46.437 0,16.858 2.209,32.257 6.634,46.202 4.421,13.944 10.926,25.911 19.511,35.901 8.585,9.99 19.094,17.74 31.53,23.257 12.433,5.515 26.716,8.273 42.846,8.273 16.129,0 30.438,-2.785 42.925,-8.351 C -8.585,99.714 1.951,91.937 10.536,81.947 19.121,71.957 25.65,59.989 30.125,46.046 34.598,32.101 36.837,16.702 36.837,-0.156 Z"
       style="fill:none;stroke:#ffffff;stroke-width:7;stroke-linecap:butt;stroke-linejoin:miter;stroke-miterlimit:10;stroke-dasharray:none;stroke-opacity:1"
       transform="matrix(1.3333333,0,0,-1.3333333,33434.931,1226.8947)"
       clip-path="url(#clipPath330)" />
    <path
       id="path331"
       d="M 0,0 93.497,-165.611 V 0 h 36.837 V -217.745 H 88.815 L -5.151,-50.573 V -217.745 H -41.988 V 0 Z"
       style="fill:#ffffff;fill-opacity:1;fill-rule:nonzero;stroke:#ffffff;stroke-width:7;stroke-linecap:butt;stroke-linejoin:miter;stroke-miterlimit:10;stroke-dasharray:none;stroke-opacity:1"
       transform="matrix(1.3333333,0,0,-1.3333333,33597.68,1082.6681)"
       clip-path="url(#clipPath332)" />
    <path
       id="path333"
       d="m 0,0 c 0,-24.473 -19.839,-44.312 -44.312,-44.312 -24.472,0 -44.311,19.839 -44.311,44.312 0,24.473 19.839,44.312 44.311,44.312 C -19.839,44.312 0,24.473 0,0"
       style="fill:#ffffff;fill-opacity:1;fill-rule:nonzero;stroke:none"
       transform="matrix(1.3333333,0,0,-1.3333333,32621.692,545.88893)"
       clip-path="url(#clipPath334)" />
  </g>
</svg>
